<svg xmlns="http://www.w3.org/2000/svg" viewBox="0 0 242.05 418.47"><defs><style>.cls-1{font-size:20.23px;fill:#3083ff;font-family:CircularStd-Medium, Circular Std;font-weight:500;letter-spacing:0.03em;}.cls-11,.cls-12,.cls-2,.cls-3,.cls-4,.cls-5,.cls-7,.cls-8,.cls-9{fill:#6b7075;}.cls-2{letter-spacing:0.01em;}.cls-4{letter-spacing:0.02em;}.cls-5{letter-spacing:0.01em;}.cls-6{letter-spacing:0.01em;}.cls-7{letter-spacing:0.02em;}.cls-8{letter-spacing:0.04em;}.cls-9{letter-spacing:0.01em;}.cls-10{letter-spacing:0.03em;}.cls-11{letter-spacing:0.02em;}.cls-12{letter-spacing:0.02em;}.cls-13{fill:#002f5e;}.cls-14{fill:#226cff;}</style></defs><g id="layer_2" data-name="layer 2"><g id="layer_1-2" data-name="layer 1"><text class="cls-1" transform="translate(1.16 413.65)">E<tspan class="cls-2" x="12.28" y="0">t</tspan><tspan class="cls-3" x="19.93" y="0">he</tspan><tspan class="cls-4" x="43.64" y="0">r</tspan><tspan class="cls-5" x="51.78" y="0">e</tspan><tspan class="cls-3" x="63.17" y="0">um </tspan><tspan class="cls-6" x="99.04" y="0">R</tspan><tspan class="cls-3" x="111.79" y="0">e</tspan><tspan class="cls-7" x="123.38" y="0">s</tspan><tspan class="cls-3" x="133.07" y="0">e</tspan><tspan class="cls-8" x="144.67" y="0">r</tspan><tspan class="cls-9" x="153.21" y="0">v</tspan><tspan class="cls-3" x="164.03" y="0">e </tspan><tspan class="cls-10" x="181.15" y="0">D</tspan><tspan class="cls-3" x="196.3" y="0">ol</tspan><tspan class="cls-11" x="214.41" y="0">l</tspan><tspan class="cls-12" x="220.26" y="0">ar</tspan></text><path class="cls-13" d="M55.92,382.69H0v-89.3H55.92v16.37H17.38v20.41H52.27v15.49H17.38v20.65H55.92Z"/><path class="cls-13" d="M124.9,382.69,107.4,348.3H98.33v34.39H80.82v-89.3h34.89q12.84,0,20.65,7.81t7.81,19.65a25.3,25.3,0,0,1-19,25.31l19.15,36.53ZM98.33,333.31h14.1q6.55,0,10.27-3.4a11.54,11.54,0,0,0,3.71-8.94,11.72,11.72,0,0,0-3.71-9.07q-3.72-3.39-10.27-3.4H98.33Z"/><path class="cls-13" d="M197.84,382.69H166v-89.3h32q19.53,0,31.8,12t12.28,32.75q0,20.65-12.34,32.62T197.84,382.69Zm-14.48-16.13h13.85q11.72,0,19.28-7.3T224,338.1q0-13.86-7.55-21.22t-19.15-7.37h-14Z"/><path class="cls-14" d="M242.05,177.59,121.17,0,0,177.63l121.58,70ZM113.61,112.27,31.25,159.82l82.36-122Zm15.3-74.48,82.36,122-82.36-47.55ZM192.1,188.93l-71-41-14.89,8.65,71,41-19.44,11.3-71-41L70,177.64l71,41-19.44,11.3L31,177.64l90-52.3,90.58,52.29Z"/></g></g></svg>
