<svg width="13" height="21" viewBox="0 0 13 21" fill="none" xmlns="http://www.w3.org/2000/svg">
    <path fill-rule="evenodd" clip-rule="evenodd" d="M7.14789 1.01802L6.72695 0.345215L6.30181 1.01537L0.746554 9.77204L0.425293 10.2784L0.981216 10.5034L6.53633 12.7511L6.72518 12.8276L6.91366 12.7502L12.3924 10.5025L12.941 10.2775L12.6265 9.77476L7.14789 1.01802ZM6.72257 11.7477L1.91223 9.80134L6.72107 2.22121L11.4642 9.80244L6.72257 11.7477ZM11.7098 13.0942L12.784 11.5505L11.085 12.3569L6.72031 14.4284L2.19378 12.3541L0.473164 11.5656L1.57986 13.101L6.31867 19.6755L6.73145 20.2482L7.13469 19.6687L11.7098 13.0942ZM6.71711 18.5181L3.49779 14.0516L6.51571 15.4347L6.72772 15.5318L6.9384 15.4318L9.81474 14.0667L6.71711 18.5181Z" fill="#666"/>
</svg>
