<svg width="54" height="54" viewBox="0 0 54 54" fill="none" xmlns="http://www.w3.org/2000/svg">
<path d="M53.25 27C53.25 12.5025 41.4975 0.75 27 0.75C12.5025 0.75 0.75 12.5025 0.75 27C0.75 41.4975 12.5025 53.25 27 53.25C41.4975 53.25 53.25 41.4975 53.25 27Z" fill="#0052FF"/>
<path d="M27.0076 36.2285C21.9089 36.2285 17.7791 32.0988 17.7791 27C17.7791 21.9012 21.9089 17.7715 27.0076 17.7715C31.5757 17.7715 35.3671 21.1014 36.0977 25.4619H45.3954C44.611 15.9873 36.6821 8.54297 27.0076 8.54297C16.8177 8.54297 8.55054 16.8102 8.55054 27C8.55054 37.1898 16.8177 45.457 27.0076 45.457C36.6821 45.457 44.611 38.0127 45.3954 28.5381H36.09C35.3594 32.8986 31.5757 36.2285 27.0076 36.2285Z" fill="white"/>
</svg>
