<svg width="56" height="56" viewBox="0 0 56 56" fill="none" xmlns="http://www.w3.org/2000/svg">
<path d="M28 56C43.464 56 56 43.464 56 28C56 12.536 43.464 0 28 0C12.536 0 0 12.536 0 28C0 43.464 12.536 56 28 56Z" fill="#F1F7FF"/>
<path d="M19.9608 26.6L19.7412 26.9432C17.2652 30.8146 17.8182 35.8849 21.0708 39.1331C22.9842 41.0441 25.4921 41.9997 27.9999 42C27.9999 42 27.9999 42 19.9608 26.6Z" fill="#00A3FF"/>
<path opacity="0.6" d="M27.9999 31.2804L19.5999 26.6C27.9999 42 27.9999 42 27.9999 42C27.9999 38.646 27.9999 34.8027 27.9999 31.2804Z" fill="#00A3FF"/>
<path opacity="0.6" d="M36.0392 26.6L36.2587 26.9432C38.7347 30.8146 38.1818 35.8849 34.9292 39.1331C33.0157 41.0441 30.5079 41.9997 28 42C28 42 28 42 36.0392 26.6Z" fill="#00A3FF"/>
<path opacity="0.2" d="M28 31.2804L36.4 26.6C28 42 28 42 28 42C28 38.646 28 34.8027 28 31.2804Z" fill="#00A3FF"/>
<path opacity="0.2" d="M28 21V29.4L35 25.2027L28 21Z" fill="#00A3FF"/>
<path opacity="0.6" d="M28 21L21 25.2026L28 29.4V21Z" fill="#00A3FF"/>
<path d="M28 14L21 25.2L28 21.0116V14Z" fill="#00A3FF"/>
<path opacity="0.6" d="M28 21.0136L35 25.2L28 14V21.0136Z" fill="#00A3FF"/>
</svg>
