<svg width="26" height="26" viewBox="0 0 26 26" fill="none" xmlns="http://www.w3.org/2000/svg">
<path fill-rule="evenodd" clip-rule="evenodd" d="M3.75739 7.27522C3.31426 7.71929 3.14167 8.1323 3.14167 8.5C3.14167 8.8677 3.31426 9.28071 3.75739 9.72478C4.20372 10.1721 4.88718 10.6093 5.7916 10.9926C7.59775 11.7582 10.1458 12.25 13 12.25C15.8542 12.25 18.4023 11.7582 20.2084 10.9926C21.1128 10.6093 21.7963 10.1721 22.2426 9.72478C22.6857 9.28071 22.8583 8.8677 22.8583 8.5C22.8583 8.1323 22.6857 7.71929 22.2426 7.27522C21.7963 6.82794 21.1128 6.39073 20.2084 6.00738C18.4023 5.24182 15.8542 4.75 13 4.75C10.1458 4.75 7.59775 5.24182 5.7916 6.00738C4.88718 6.39073 4.20372 6.82794 3.75739 7.27522ZM5.19416 4.62866C7.23049 3.76554 9.9908 3.25 13 3.25C16.0092 3.25 18.7695 3.76554 20.8058 4.62866C21.8227 5.05965 22.694 5.59211 23.3221 6.22157C23.9534 6.85425 24.375 7.62506 24.375 8.5C24.375 9.37494 23.9534 10.1457 23.3221 10.7784C22.694 11.4079 21.8227 11.9403 20.8058 12.3713C18.7695 13.2345 16.0092 13.75 13 13.75C9.9908 13.75 7.23049 13.2345 5.19416 12.3713C4.17734 11.9403 3.30603 11.4079 2.6779 10.7784C2.04656 10.1457 1.625 9.37494 1.625 8.5C1.625 7.62506 2.04656 6.85425 2.6779 6.22157C3.30603 5.59211 4.17734 5.05965 5.19416 4.62866ZM5.7916 15.4926C7.59775 16.2582 10.1458 16.75 13 16.75C15.8542 16.75 18.4023 16.2582 20.2084 15.4926C21.1128 15.1093 21.7963 14.6721 22.2426 14.2248C22.6857 13.7807 22.8583 13.3677 22.8583 13H24.375C24.375 13.8749 23.9534 14.6457 23.3221 15.2784C22.694 15.9079 21.8227 16.4403 20.8058 16.8713C18.7695 17.7345 16.0092 18.25 13 18.25C9.9908 18.25 7.23049 17.7345 5.19416 16.8713C4.17734 16.4403 3.30603 15.9079 2.6779 15.2784C2.04656 14.6457 1.625 13.8749 1.625 13H3.14167C3.14167 13.3677 3.31426 13.7807 3.75739 14.2248C4.20372 14.6721 4.88718 15.1093 5.7916 15.4926ZM13 21.25C10.1458 21.25 7.59775 20.7582 5.7916 19.9926C4.88718 19.6093 4.20372 19.1721 3.75739 18.7248C3.31426 18.2807 3.14167 17.8677 3.14167 17.5H1.625C1.625 18.3749 2.04656 19.1457 2.6779 19.7784C3.30603 20.4079 4.17734 20.9403 5.19416 21.3713C7.23049 22.2345 9.9908 22.75 13 22.75C16.0092 22.75 18.7695 22.2345 20.8058 21.3713C21.8227 20.9403 22.694 20.4079 23.3221 19.7784C23.9534 19.1457 24.375 18.3749 24.375 17.5H22.8583C22.8583 17.8677 22.6857 18.2807 22.2426 18.7248C21.7963 19.1721 21.1128 19.6093 20.2084 19.9926C18.4023 20.7582 15.8542 21.25 13 21.25Z" fill="white"/>
</svg>
