<svg width="18" height="18" viewBox="0 0 18 18" fill="none" xmlns="http://www.w3.org/2000/svg">
<path d="M3 8.25L13.5 8.25V9.75L3 9.75V8.25Z" fill="url(#paint0_linear_4400_3420)"/>
<path d="M12 12L3 12V13.5H12V12Z" fill="url(#paint1_linear_4400_3420)"/>
<path d="M0 1.5C0 0.671573 0.671573 0 1.5 0H16.5C17.3284 0 18 0.671573 18 1.5V16.5C18 17.3284 17.3284 18 16.5 18H1.5C0.671573 18 0 17.3284 0 16.5V1.5ZM1.5 1.5L1.5 4.5H16.5V1.5H1.5ZM1.5 6L1.5 16.5H16.5V6H1.5Z" fill="url(#paint2_linear_4400_3420)"/>
<defs>
<linearGradient id="paint0_linear_4400_3420" x1="4.3125" y1="17.0625" x2="11.8125" y2="1.6875" gradientUnits="userSpaceOnUse">
<stop stop-color="#863CFF"/>
<stop offset="1" stop-color="#FF7878"/>
</linearGradient>
<linearGradient id="paint1_linear_4400_3420" x1="4.3125" y1="17.0625" x2="11.8125" y2="1.6875" gradientUnits="userSpaceOnUse">
<stop stop-color="#863CFF"/>
<stop offset="1" stop-color="#FF7878"/>
</linearGradient>
<linearGradient id="paint2_linear_4400_3420" x1="4.3125" y1="17.0625" x2="11.8125" y2="1.6875" gradientUnits="userSpaceOnUse">
<stop stop-color="#863CFF"/>
<stop offset="1" stop-color="#FF7878"/>
</linearGradient>
</defs>
</svg>
