<svg width="20" height="20" viewBox="0 0 20 20" fill="none" xmlns="http://www.w3.org/2000/svg">
<path d="M9.07426 1.43897C9.65426 1.1361 10.3457 1.1361 10.9257 1.43897L17.586 4.91679C18.2463 5.26158 18.6603 5.94475 18.6603 6.68964V13.3102C18.6603 14.0551 18.2463 14.7383 17.586 15.083L10.9257 18.5609C10.3457 18.8637 9.65426 18.8637 9.07426 18.5609L2.414 15.083C1.75371 14.7383 1.33975 14.0551 1.33975 13.3102V6.68964C1.33975 5.94475 1.75371 5.26158 2.41401 4.91679L9.07426 1.43897Z" fill="url(#paint0_linear_8931_3642)"/>
<path d="M9.07426 1.43897C9.65426 1.1361 10.3457 1.1361 10.9257 1.43897L17.586 4.91679C18.2463 5.26158 18.6603 5.94475 18.6603 6.68964V13.3102C18.6603 14.0551 18.2463 14.7383 17.586 15.083L10.9257 18.5609C10.3457 18.8637 9.65426 18.8637 9.07426 18.5609L2.414 15.083C1.75371 14.7383 1.33975 14.0551 1.33975 13.3102V6.68964C1.33975 5.94475 1.75371 5.26158 2.41401 4.91679L9.07426 1.43897Z" fill="url(#paint1_linear_8931_3642)"/>
<path fill-rule="evenodd" clip-rule="evenodd" d="M10.9374 0.227196L18.8889 4.37929C19.469 4.68222 19.8264 5.24205 19.8264 5.84791V14.1521C19.8264 14.7579 19.469 15.3178 18.8889 15.6207L10.9374 19.7728C10.3572 20.0757 9.64249 20.0757 9.06236 19.7728L1.11084 15.6207C0.530713 15.3178 0.17334 14.7579 0.17334 14.1521V5.84791C0.17334 5.24205 0.530713 4.68222 1.11084 4.37929L9.06236 0.227196C9.64249 -0.0757322 10.3572 -0.075732 10.9374 0.227196ZM10.6249 0.716736C10.2381 0.514784 9.76161 0.514784 9.37486 0.716736L1.42334 4.86883C1.03659 5.07078 0.79834 5.444 0.79834 5.84791V14.1521C0.79834 14.556 1.03659 14.9292 1.42334 15.1312L9.37486 19.2833C9.76161 19.4852 10.2381 19.4852 10.6249 19.2833L18.5764 15.1312C18.9631 14.9292 19.2014 14.556 19.2014 14.1521V5.84791C19.2014 5.444 18.9631 5.07078 18.5764 4.86883L10.6249 0.716736Z" fill="url(#paint2_linear_8931_3642)"/>
<path d="M15.625 12.2091L10.0089 4.9126L4.375 12.2123L10.0267 15.0875L15.625 12.2091ZM9.65699 9.52555L5.82879 11.4801L9.65699 6.46491V9.52555ZM10.3679 6.46491L14.1961 11.4801L10.3679 9.52555V6.46491ZM13.3039 12.6773L10.0018 10.993L9.30865 11.3481L12.6108 13.0324L11.7079 13.4975L8.40581 11.8132L7.62737 12.2123L10.9295 13.8965L10.0267 14.3616L5.81457 12.2123L9.99822 10.0629L14.2068 12.2123L13.3039 12.6773Z" fill="white"/>
<defs>
<linearGradient id="paint0_linear_8931_3642" x1="4.79167" y1="18.1021" x2="11.8555" y2="2.09128" gradientUnits="userSpaceOnUse">
<stop stop-color="#863CFF"/>
<stop offset="1" stop-color="#FF7878"/>
</linearGradient>
<linearGradient id="paint1_linear_8931_3642" x1="5.9375" y1="20.4575" x2="9.37849" y2="12.5556" gradientUnits="userSpaceOnUse">
<stop stop-color="#2EC0FF"/>
<stop offset="1" stop-color="#3CADFF" stop-opacity="0"/>
</linearGradient>
<linearGradient id="paint2_linear_8931_3642" x1="4.88188" y1="18.9583" x2="13.3047" y2="1.99117" gradientUnits="userSpaceOnUse">
<stop stop-color="#863CFF"/>
<stop offset="1" stop-color="#FF7878"/>
</linearGradient>
</defs>
</svg>
