<svg width="21" height="20" viewBox="0 0 21 20" fill="none" xmlns="http://www.w3.org/2000/svg">
<path d="M5.49994 2.40239C5.49994 1.67158 6.15001 1.25 6.74412 1.25H12.2073C12.543 1.25 12.8645 1.385 13.0996 1.62461L17.6424 6.25518C17.8715 6.48866 17.9999 6.80261 18.0001 7.12969L18.0058 15.0972C18.0058 15.828 17.3557 16.25 16.7616 16.25H6.74994C6.1559 16.25 5.50593 15.8285 5.50576 15.0979L5.49994 2.40239ZM6.74999 2.5L6.75572 15H16.7557L16.7504 7.51594H11.75V2.5H6.74999ZM13 3.30806V6.26594H15.9019L13 3.30806Z" fill="white"/>
<path d="M3 6.25002V17.5159C3 18.2063 3.55965 18.7659 4.25 18.7659H14.25V17.5159L4.25 17.5159V6.25002H3Z" fill="white"/>
</svg>
