<svg width="21" height="20" viewBox="0 0 21 20" fill="none" xmlns="http://www.w3.org/2000/svg">
<path d="M11.7501 3.75V6.25H13.0001V3.125C13.0001 2.77982 12.7203 2.5 12.3751 2.5H2.37508C2.0299 2.5 1.75008 2.77982 1.75008 3.125V16.875C1.75008 17.2202 2.0299 17.5 2.37508 17.5H12.3751C12.7203 17.5 13.0001 17.2202 13.0001 16.875V13.75H11.7501V16.25H3.00008V3.75H11.7501Z" fill="white"/>
<path d="M14.5396 6.56778L17.3468 9.37501L8 9.37499L8 10.625L17.3468 10.625L14.5396 13.4322L15.4235 14.3161L19.2976 10.442C19.5417 10.1979 19.5417 9.80215 19.2976 9.55807L15.4235 5.6839L14.5396 6.56778Z" fill="white"/>
</svg>
