<svg width="21" height="20" viewBox="0 0 21 20" fill="none" xmlns="http://www.w3.org/2000/svg">
<path d="M14.0995 9.99976C14.0995 11.9879 12.4879 13.5996 10.4997 13.5996C8.51147 13.5996 6.89984 11.9879 6.89984 9.99976C6.89984 8.01169 8.51147 6.39998 10.4997 6.39998C12.4879 6.39998 14.0995 8.01169 14.0995 9.99976ZM12.8495 9.99976C12.8495 8.702 11.7973 7.64998 10.4997 7.64998C9.20178 7.64998 8.14984 8.702 8.14984 9.99976C8.14984 11.2975 9.20178 12.3496 10.4997 12.3496C11.7973 12.3496 12.8495 11.2975 12.8495 9.99976Z" fill="white"/>
<path d="M1.89618 10.2872C3.57678 13.5872 6.87695 15.6248 10.5061 15.6248C14.123 15.6248 17.4232 13.5872 19.1038 10.2872L19.25 9.99976L19.1038 9.71228C17.4232 6.42477 14.123 4.37476 10.5061 4.37476C6.87695 4.37476 3.57678 6.42477 1.89618 9.71228L1.75 9.99976L1.89618 10.2872ZM10.5061 14.3748C7.43726 14.3748 4.64825 12.7122 3.13824 9.99976C4.64825 7.28728 7.43726 5.62476 10.5061 5.62476C13.5627 5.62476 16.3517 7.28728 17.874 9.99976C16.3636 12.7122 13.5627 14.3748 10.5061 14.3748Z" fill="white"/>
</svg>
